<svg xmlns="http://www.w3.org/2000/svg" viewBox="0 0 256 256">
  <defs>
    <linearGradient id="g" x1="0%" y1="0%" x2="100%" y2="100%">
      <stop offset="0%" stop-color="#2563eb"/>
      <stop offset="100%" stop-color="#0ea5e9"/>
    </linearGradient>
  </defs>
  <circle cx="128" cy="128" r="128" fill="url(#g)"/>
  <!-- Phosphor Icon: Rocket (Bold) -->
  <path fill="#ffffff" d="M221.78,74.15A44.1,44.1,0,0,0,181.85,34.22a106.63,106.63,0,0,0-58.42,12.44,121.73,121.73,0,0,0-23.75,16,11.51,11.51,0,0,0-1.35,1.52c-15.09-2.22-38.38-.9-53,13.75a12.06,12.06,0,0,0-3.32,10.66L53.64,136.2,32.48,157.36a12,12,0,0,0,0,17l34.28,34.28,15,15h0a12,12,0,0,0,17,0l21.16-21.16L167.5,214a12.08,12.08,0,0,0,10.67-3.32c14.65-14.64,16-37.93,13.75-53a11.51,11.51,0,0,0,1.52-1.35,121.73,121.73,0,0,0,16-23.75A106.63,106.63,0,0,0,221.78,74.15ZM74.88,189.6l-25.5-25.5L72,141.5A78.36,78.36,0,0,0,88.94,158.4L66.36,181A7.69,7.69,0,0,1,74.88,189.6Zm39.63-23.63A86.29,86.29,0,0,1,97.58,149L107,139.58A86.29,86.29,0,0,1,124.51,122.65l6.59,6.59Zm63.92,12.18c-7.9,7.9-24,8.55-35.39,6.29L146,181.42A7.69,7.69,0,0,1,137.42,172.9l3-3A86.29,86.29,0,0,1,123.51,153l-6.59-6.59a86.29,86.29,0,0,1,16.91-16.91l6.59,6.59A86.29,86.29,0,0,1,157.32,119.22l3-3a7.69,7.69,0,0,1,8.52,8.52L165.86,128c2.26,11.37,1.61,27.49-6.29,35.39ZM206.62,116.3A106.88,106.88,0,0,1,192,137.91l-14-14a78.36,78.36,0,0,0-16.91-16.91l14-14a106.88,106.88,0,0,1,21.61-14.62C203,84.74,208.57,96.34,206.62,116.3Z"/>
</svg>
